<svg id="Capa_1" enable-background="new 0 0 512 512" height="512" viewBox="0 0 512 512" width="512" xmlns="http://www.w3.org/2000/svg" xmlns:xlink="http://www.w3.org/1999/xlink"><linearGradient id="SVGID_1_" gradientUnits="userSpaceOnUse" x1="256" x2="256" y1="512" y2="0"><stop offset="0" stop-color="#addcff"/><stop offset=".5028" stop-color="#eaf6ff"/><stop offset="1" stop-color="#eaf6ff"/></linearGradient><linearGradient id="SVGID_2_" gradientUnits="userSpaceOnUse" x1="256" x2="256" y1="407" y2="105"><stop offset="0" stop-color="#00c0ff"/><stop offset="1" stop-color="#5558ff"/></linearGradient><g><g><g><circle cx="256" cy="256" fill="url(#SVGID_1_)" r="256"/></g></g><g><g><path d="m291.529 158.294c14.694 0 26.647-11.953 26.647-26.647s-11.953-26.647-26.647-26.647-26.647 11.953-26.647 26.647 11.953 26.647 26.647 26.647zm71.059 177.647h-9.057c-2.907 4.569-6.378 8.757-9.91 12.884l7.482 7.483c3.47 3.47 3.47 9.091 0 12.56-3.469 3.469-9.09 3.47-12.56 0l-7.565-7.565c-22.627 19.408-47.685 27.984-75.057 27.984-40.746 0-76.644-21.263-97.236-53.346h-9.274c-24.487 0-44.412 19.925-44.412 44.412v17.765c0 4.91 3.973 8.882 8.882 8.882h14.087l32.927-32.927c3.469-3.47 9.09-3.47 12.56 0s3.47 9.091 0 12.56l-20.365 20.367h245.028c4.91 0 8.882-3.973 8.882-8.882v-17.765c0-24.487-19.925-44.412-44.412-44.412zm-106.588-17.764c4.892 0 8.882-3.981 8.882-8.882-.078-2.724-3.773-10.461-8.882-19.066-5.118 8.622-8.813 16.359-8.882 19.074 0 4.892 3.981 8.874 8.882 8.874zm-.078 53.346c48.17 0 86.492-33.744 95.642-76.914 0-.009 0-.017 0-.017 5.907-28.252-.269-56.46-17.4-79.447l-21.321-28.425c-4.996-6.679-12.968-10.661-21.312-10.661-14.694 0-26.647 11.953-26.647 26.647v17.765c0 4.901-3.981 8.882-8.882 8.882s-8.882-3.981-8.882-8.882v-53.294c0-14.694-11.953-26.647-26.647-26.647-10.982 0-20.766 6.644-24.999 17.097l-30.932 81.398c-4.146 11.051-6.245 22.744-6.245 34.74-.003 55.394 45.259 97.758 97.625 97.758zm-7.234-102.807c3.331-4.805 11.294-4.805 14.625 0 5.812 8.423 19.335 29.223 19.335 40.578 0 14.694-11.953 26.647-26.647 26.647s-26.647-11.953-26.647-26.647c-.001-11.354 13.522-32.155 19.334-40.578z" fill="url(#SVGID_2_)"/></g></g></g></svg>